<svg xmlns="http://www.w3.org/2000/svg" viewBox="0 0 313 313"><title>westen-middle</title><g id="Layer_1" data-name="Layer 1"><text/><text/><text/></g><g id="Layer_2" data-name="Layer 2"><path d="M140.91,144.17l-.95-.47-1.74,37-2.95-1.61-1.38-32.61-1.32,31.14-2.9-1.58-1.89-38.36-.89-.44v-1l4.69,2.3v1l-.91-.44,1.35,32,1.39-31.66,2.94,1.44,1.44,33.31,1.25-31-.92-.46v-1l2.79,1.37Z" fill="#1d1d1b"/><path d="M154.68,189.69l-9.56-5.2v-1l.94.51V146.7l-.94-.47v-1l9.56,4.68v11.93l-3.09-1.56V149.41l-2.49-1.22v17.1l3.63,1.87v1l-3.63-1.87v19.33l2.49,1.35V176.13l3.09,1.63Z" fill="#1d1d1b"/><path d="M166.81,181.13a9.41,9.41,0,0,1-1.5,4.87,9.89,9.89,0,0,1-3.74,3.7c-1.52.82-2.79.94-3.81.37a3.45,3.45,0,0,1-1.53-3.29v-6.43L160,178.4v8.89c0,1.51.54,2,1.62,1.39a3.23,3.23,0,0,0,1.59-3.12V178.7a7.47,7.47,0,0,0-1.1-4.36l-4.63-6.45a7.61,7.61,0,0,1-1.2-4.5V158a9.14,9.14,0,0,1,1.53-4.87,9.33,9.33,0,0,1,3.81-3.54,3.7,3.7,0,0,1,3.74-.15,3.62,3.62,0,0,1,1.5,3.33v6.33l-3.65,1.83v-8.84c0-1.5-.53-2-1.59-1.48a3.08,3.08,0,0,0-1.62,3.06v6.64a7.51,7.51,0,0,0,1.1,4.36l4.58,6.44a7.55,7.55,0,0,1,1.18,4.46Z" fill="#1d1d1b"/><path d="M186.11,149.35,182.93,151V140.42l-1.57.77v36.53l1.08-.58v1l-5.68,3.08v-1l1.09-.6V142.9l-1.59.78v10.63L173,156V144.27l13.12-6.39Z" fill="#1d1d1b"/><path d="M166.64,146l-8.56,4.16-.82-.4.86-.42-28.89-14.06-.86.38-.75-.37,8.55-3.81,8.87,4.22L142.32,137l-8.11-3.9-2.22,1,12.9,6.24,3.24-1.5.78.38-3.23,1.5,15.2,7.34L163.1,147l-8.59-4.13,2.72-1.28Z" fill="#1d1d1b"/><path d="M177.44,140.8l-1.14.56q-2.33,1.13-5.64-.42l-11-5.13a4.59,4.59,0,0,0-1.62-.39,3,3,0,0,0-1.45.2l-1.16.53,15.21,7.16.83-.41.82.39L168,145.4l-.82-.39.84-.4-28.9-13.7-.84.38-.75-.36,4.67-2.09a9.46,9.46,0,0,1,4.08-.68,10.65,10.65,0,0,1,4.19.89l5.76,2.67q2.82,1.31,1.7,2.93a11.24,11.24,0,0,1,6.37.82l10.32,4.79a2.34,2.34,0,0,0,2,.2l.07,0Zm-22-7-9.5-4.44a4.37,4.37,0,0,0-1.58-.38,3.07,3.07,0,0,0-1.43.19l-1.16.52,12.92,6.07,1.15-.53c.37-.17.52-.4.44-.68S155.91,134.05,155.43,133.82Z" fill="#1d1d1b"/><path d="M156.94,122.92l-.8.36,29.71,13.44-2.06,1-27.86-9.1,23.12,10.63.81-.39.82.37-2.44,1.18-.82-.37.81-.4-28.9-13.32-.82.37-.75-.35,3.3-1.48,24.42,7.91-20.14-9.14-.81.36-.75-.34,2.4-1.07Z" fill="#1d1d1b"/></g></svg>